<svg width="20" height="20" viewBox="0 0 20 20" fill="none" xmlns="http://www.w3.org/2000/svg">
<path d="M9.16666 10.8333L9.16665 7.49996C9.16665 7.03972 9.53975 6.66663 9.99999 6.66663C10.4602 6.66663 10.8333 7.03972 10.8333 7.49996L10.8333 10.8333C10.8333 11.2935 10.4602 11.6666 9.99999 11.6666C9.53975 11.6666 9.16666 11.2935 9.16666 10.8333Z" fill="#1E202C"/>
<path d="M9.99999 15C10.4602 15 10.8333 14.6269 10.8333 14.1666C10.8333 13.7064 10.4602 13.3333 9.99999 13.3333C9.53975 13.3333 9.16666 13.7064 9.16666 14.1666C9.16666 14.6269 9.53975 15 9.99999 15Z" fill="#1E202C"/>
<path fill-rule="evenodd" clip-rule="evenodd" d="M9.99999 1.66663C10.6313 1.66663 11.2084 2.0233 11.4907 2.58794L18.1574 15.9213C18.4157 16.4379 18.3881 17.0515 18.0844 17.5428C17.7807 18.0342 17.2443 18.3333 16.6667 18.3333H3.33333C2.7557 18.3333 2.21925 18.0342 1.91557 17.5428C1.6119 17.0515 1.58429 16.4379 1.84261 15.9213L8.50928 2.58794C8.7916 2.0233 9.36871 1.66663 9.99999 1.66663ZM3.33333 16.6666H16.6667L9.99999 3.33329L3.33333 16.6666Z" fill="#FFCE4F"/>
</svg>
